<?xml version="1.0" encoding="UTF-8"?>
<svg width="82px" height="36px" viewBox="0 0 82 36" version="1.1" xmlns="http://www.w3.org/2000/svg" xmlns:xlink="http://www.w3.org/1999/xlink">
    <!-- Generator: Sketch 64 (93537) - https://sketch.com -->
    <title>Group 2</title>
    <desc>Created with Sketch.</desc>
    <g id="Vuelos-+-evento" stroke="none" stroke-width="1" fill="none" fill-rule="evenodd">
        <g id="Home-Hello" transform="translate(-258.000000, -460.000000)" fill="#D2D2D2" fill-rule="nonzero">
            <g id="Group-2" transform="translate(258.000000, 460.000000)">
                <g id="001-hotel" transform="translate(45.000000, 0.000000)">
                    <path d="M36,5.49152542 L29.2881356,5.49152542 L29.2881356,0.610169492 C29.2881356,0.27320339 29.0149322,0 28.6779661,0 L7.93220339,0 C7.59523729,0 7.3220339,0.27320339 7.3220339,0.610169492 L7.3220339,9.15254237 L0.610169492,9.15254237 C0.27320339,9.15254237 0,9.42574576 0,9.76271186 L0,34.779661 C0,35.1166271 0.27320339,35.3898305 0.610169492,35.3898305 C0.947135593,35.3898305 1.22033898,35.1166271 1.22033898,34.779661 L1.22033898,10.3728814 L7.3220339,10.3728814 L7.3220339,35.3898305 C7.3220339,35.7267966 7.59523729,36 7.93220339,36 L28.6779661,36 C29.0149322,36 29.2881356,35.7267966 29.2881356,35.3898305 L29.2881356,6.71186441 L35.3898305,6.71186441 L35.3898305,34.779661 C35.3898305,35.1166271 35.6630339,35.3898305 36,35.3898305 C36.3369661,35.3898305 36.6101695,35.1166271 36.6101695,34.779661 L36.6101695,6.10169492 C36.6101695,5.76472881 36.3369661,5.49152542 36,5.49152542 Z M17.6949153,34.779661 L15.2542373,34.779661 L15.2542373,29.2881356 L17.6949153,29.2881356 L17.6949153,34.779661 Z M21.3559322,34.779661 L18.9152542,34.779661 L18.9152542,29.2881356 L21.3559322,29.2881356 L21.3559322,34.779661 Z M28.0677966,34.779661 L22.5762712,34.779661 L22.5762712,28.6779661 C22.5762712,28.341 22.3030678,28.0677966 21.9661017,28.0677966 L14.6440678,28.0677966 C14.3071017,28.0677966 14.0338983,28.341 14.0338983,28.6779661 L14.0338983,34.779661 L8.54237288,34.779661 L8.54237288,1.22033898 L28.0677966,1.22033898 L28.0677966,34.779661 Z" id="Shape"/>
                    <path d="M14.0338983,2.44067797 L10.3728814,2.44067797 C10.0359153,2.44067797 9.76271186,2.71388136 9.76271186,3.05084746 L9.76271186,6.71186441 C9.76271186,7.04883051 10.0359153,7.3220339 10.3728814,7.3220339 L14.0338983,7.3220339 C14.3708644,7.3220339 14.6440678,7.04883051 14.6440678,6.71186441 L14.6440678,3.05084746 C14.6440678,2.71388136 14.3708644,2.44067797 14.0338983,2.44067797 Z M13.4237288,6.10169492 L10.9830508,6.10169492 L10.9830508,3.66101695 L13.4237288,3.66101695 L13.4237288,6.10169492 Z" id="Shape"/>
                    <path d="M20.1355932,2.44067797 L16.4745763,2.44067797 C16.1376102,2.44067797 15.8644068,2.71388136 15.8644068,3.05084746 L15.8644068,6.71186441 C15.8644068,7.04883051 16.1376102,7.3220339 16.4745763,7.3220339 L20.1355932,7.3220339 C20.4725593,7.3220339 20.7457627,7.04883051 20.7457627,6.71186441 L20.7457627,3.05084746 C20.7457627,2.71388136 20.4725593,2.44067797 20.1355932,2.44067797 Z M19.5254237,6.10169492 L17.0847458,6.10169492 L17.0847458,3.66101695 L19.5254237,3.66101695 L19.5254237,6.10169492 Z" id="Shape"/>
                    <path d="M26.2372881,2.44067797 L22.5762712,2.44067797 C22.2393051,2.44067797 21.9661017,2.71388136 21.9661017,3.05084746 L21.9661017,6.71186441 C21.9661017,7.04883051 22.2393051,7.3220339 22.5762712,7.3220339 L26.2372881,7.3220339 C26.5742542,7.3220339 26.8474576,7.04883051 26.8474576,6.71186441 L26.8474576,3.05084746 C26.8474576,2.71388136 26.5742542,2.44067797 26.2372881,2.44067797 Z M25.6271186,6.10169492 L23.1864407,6.10169492 L23.1864407,3.66101695 L25.6271186,3.66101695 L25.6271186,6.10169492 Z" id="Shape"/>
                    <path d="M14.0338983,8.54237288 L10.3728814,8.54237288 C10.0359153,8.54237288 9.76271186,8.81557627 9.76271186,9.15254237 L9.76271186,12.8135593 C9.76271186,13.1505254 10.0359153,13.4237288 10.3728814,13.4237288 L14.0338983,13.4237288 C14.3708644,13.4237288 14.6440678,13.1505254 14.6440678,12.8135593 L14.6440678,9.15254237 C14.6440678,8.81557627 14.3708644,8.54237288 14.0338983,8.54237288 Z M13.4237288,12.2033898 L10.9830508,12.2033898 L10.9830508,9.76271186 L13.4237288,9.76271186 L13.4237288,12.2033898 Z" id="Shape"/>
                    <path d="M20.1355932,8.54237288 L16.4745763,8.54237288 C16.1376102,8.54237288 15.8644068,8.81557627 15.8644068,9.15254237 L15.8644068,12.8135593 C15.8644068,13.1505254 16.1376102,13.4237288 16.4745763,13.4237288 L20.1355932,13.4237288 C20.4725593,13.4237288 20.7457627,13.1505254 20.7457627,12.8135593 L20.7457627,9.15254237 C20.7457627,8.81557627 20.4725593,8.54237288 20.1355932,8.54237288 Z M19.5254237,12.2033898 L17.0847458,12.2033898 L17.0847458,9.76271186 L19.5254237,9.76271186 L19.5254237,12.2033898 Z" id="Shape"/>
                    <path d="M26.2372881,8.54237288 L22.5762712,8.54237288 C22.2393051,8.54237288 21.9661017,8.81557627 21.9661017,9.15254237 L21.9661017,12.8135593 C21.9661017,13.1505254 22.2393051,13.4237288 22.5762712,13.4237288 L26.2372881,13.4237288 C26.5742542,13.4237288 26.8474576,13.1505254 26.8474576,12.8135593 L26.8474576,9.15254237 C26.8474576,8.81557627 26.5742542,8.54237288 26.2372881,8.54237288 Z M25.6271186,12.2033898 L23.1864407,12.2033898 L23.1864407,9.76271186 L25.6271186,9.76271186 L25.6271186,12.2033898 Z" id="Shape"/>
                    <path d="M14.0338983,14.6440678 L10.3728814,14.6440678 C10.0359153,14.6440678 9.76271186,14.9172712 9.76271186,15.2542373 L9.76271186,18.9152542 C9.76271186,19.2522203 10.0359153,19.5254237 10.3728814,19.5254237 L14.0338983,19.5254237 C14.3708644,19.5254237 14.6440678,19.2522203 14.6440678,18.9152542 L14.6440678,15.2542373 C14.6440678,14.9172712 14.3708644,14.6440678 14.0338983,14.6440678 Z M13.4237288,18.3050847 L10.9830508,18.3050847 L10.9830508,15.8644068 L13.4237288,15.8644068 L13.4237288,18.3050847 Z" id="Shape"/>
                    <path d="M20.1355932,14.6440678 L16.4745763,14.6440678 C16.1376102,14.6440678 15.8644068,14.9172712 15.8644068,15.2542373 L15.8644068,18.9152542 C15.8644068,19.2522203 16.1376102,19.5254237 16.4745763,19.5254237 L20.1355932,19.5254237 C20.4725593,19.5254237 20.7457627,19.2522203 20.7457627,18.9152542 L20.7457627,15.2542373 C20.7457627,14.9172712 20.4725593,14.6440678 20.1355932,14.6440678 Z M19.5254237,18.3050847 L17.0847458,18.3050847 L17.0847458,15.8644068 L19.5254237,15.8644068 L19.5254237,18.3050847 Z" id="Shape"/>
                    <path d="M26.2372881,14.6440678 L22.5762712,14.6440678 C22.2393051,14.6440678 21.9661017,14.9172712 21.9661017,15.2542373 L21.9661017,18.9152542 C21.9661017,19.2522203 22.2393051,19.5254237 22.5762712,19.5254237 L26.2372881,19.5254237 C26.5742542,19.5254237 26.8474576,19.2522203 26.8474576,18.9152542 L26.8474576,15.2542373 C26.8474576,14.9172712 26.5742542,14.6440678 26.2372881,14.6440678 Z M25.6271186,18.3050847 L23.1864407,18.3050847 L23.1864407,15.8644068 L25.6271186,15.8644068 L25.6271186,18.3050847 Z" id="Shape"/>
                    <path d="M14.0338983,20.7457627 L10.3728814,20.7457627 C10.0359153,20.7457627 9.76271186,21.0189661 9.76271186,21.3559322 L9.76271186,25.0169492 C9.76271186,25.3539153 10.0359153,25.6271186 10.3728814,25.6271186 L14.0338983,25.6271186 C14.3708644,25.6271186 14.6440678,25.3539153 14.6440678,25.0169492 L14.6440678,21.3559322 C14.6440678,21.0189661 14.3708644,20.7457627 14.0338983,20.7457627 Z M13.4237288,24.4067797 L10.9830508,24.4067797 L10.9830508,21.9661017 L13.4237288,21.9661017 L13.4237288,24.4067797 Z" id="Shape"/>
                    <path d="M20.1355932,20.7457627 L16.4745763,20.7457627 C16.1376102,20.7457627 15.8644068,21.0189661 15.8644068,21.3559322 L15.8644068,25.0169492 C15.8644068,25.3539153 16.1376102,25.6271186 16.4745763,25.6271186 L20.1355932,25.6271186 C20.4725593,25.6271186 20.7457627,25.3539153 20.7457627,25.0169492 L20.7457627,21.3559322 C20.7457627,21.0189661 20.4725593,20.7457627 20.1355932,20.7457627 Z M19.5254237,24.4067797 L17.0847458,24.4067797 L17.0847458,21.9661017 L19.5254237,21.9661017 L19.5254237,24.4067797 Z" id="Shape"/>
                    <path d="M26.2372881,20.7457627 L22.5762712,20.7457627 C22.2393051,20.7457627 21.9661017,21.0189661 21.9661017,21.3559322 L21.9661017,25.0169492 C21.9661017,25.3539153 22.2393051,25.6271186 22.5762712,25.6271186 L26.2372881,25.6271186 C26.5742542,25.6271186 26.8474576,25.3539153 26.8474576,25.0169492 L26.8474576,21.3559322 C26.8474576,21.0189661 26.5742542,20.7457627 26.2372881,20.7457627 Z M25.6271186,24.4067797 L23.1864407,24.4067797 L23.1864407,21.9661017 L25.6271186,21.9661017 L25.6271186,24.4067797 Z" id="Shape"/>
                    <path d="M3.66101695,11.5932203 L3.05084746,11.5932203 C2.71388136,11.5932203 2.44067797,11.8664237 2.44067797,12.2033898 L2.44067797,12.8135593 C2.44067797,13.1505254 2.71388136,13.4237288 3.05084746,13.4237288 L3.66101695,13.4237288 C3.99798305,13.4237288 4.27118644,13.1505254 4.27118644,12.8135593 L4.27118644,12.2033898 C4.27118644,11.8664237 3.99798305,11.5932203 3.66101695,11.5932203 Z" id="Path"/>
                    <path d="M6.10169492,11.5932203 L5.49152542,11.5932203 C5.15455932,11.5932203 4.88135593,11.8664237 4.88135593,12.2033898 L4.88135593,12.8135593 C4.88135593,13.1505254 5.15455932,13.4237288 5.49152542,13.4237288 L6.10169492,13.4237288 C6.43866102,13.4237288 6.71186441,13.1505254 6.71186441,12.8135593 L6.71186441,12.2033898 C6.71186441,11.8664237 6.43866102,11.5932203 6.10169492,11.5932203 Z" id="Path"/>
                    <path d="M3.66101695,14.0338983 L3.05084746,14.0338983 C2.71388136,14.0338983 2.44067797,14.3071017 2.44067797,14.6440678 L2.44067797,15.2542373 C2.44067797,15.5912034 2.71388136,15.8644068 3.05084746,15.8644068 L3.66101695,15.8644068 C3.99798305,15.8644068 4.27118644,15.5912034 4.27118644,15.2542373 L4.27118644,14.6440678 C4.27118644,14.3071017 3.99798305,14.0338983 3.66101695,14.0338983 Z" id="Path"/>
                    <path d="M6.10169492,14.0338983 L5.49152542,14.0338983 C5.15455932,14.0338983 4.88135593,14.3071017 4.88135593,14.6440678 L4.88135593,15.2542373 C4.88135593,15.5912034 5.15455932,15.8644068 5.49152542,15.8644068 L6.10169492,15.8644068 C6.43866102,15.8644068 6.71186441,15.5912034 6.71186441,15.2542373 L6.71186441,14.6440678 C6.71186441,14.3071017 6.43866102,14.0338983 6.10169492,14.0338983 Z" id="Path"/>
                    <path d="M3.66101695,16.4745763 L3.05084746,16.4745763 C2.71388136,16.4745763 2.44067797,16.7477797 2.44067797,17.0847458 L2.44067797,17.6949153 C2.44067797,18.0318814 2.71388136,18.3050847 3.05084746,18.3050847 L3.66101695,18.3050847 C3.99798305,18.3050847 4.27118644,18.0318814 4.27118644,17.6949153 L4.27118644,17.0847458 C4.27118644,16.7477797 3.99798305,16.4745763 3.66101695,16.4745763 Z" id="Path"/>
                    <path d="M6.10169492,16.4745763 L5.49152542,16.4745763 C5.15455932,16.4745763 4.88135593,16.7477797 4.88135593,17.0847458 L4.88135593,17.6949153 C4.88135593,18.0318814 5.15455932,18.3050847 5.49152542,18.3050847 L6.10169492,18.3050847 C6.43866102,18.3050847 6.71186441,18.0318814 6.71186441,17.6949153 L6.71186441,17.0847458 C6.71186441,16.7477797 6.43866102,16.4745763 6.10169492,16.4745763 Z" id="Path"/>
                    <path d="M3.66101695,18.9152542 L3.05084746,18.9152542 C2.71388136,18.9152542 2.44067797,19.1884576 2.44067797,19.5254237 L2.44067797,20.1355932 C2.44067797,20.4725593 2.71388136,20.7457627 3.05084746,20.7457627 L3.66101695,20.7457627 C3.99798305,20.7457627 4.27118644,20.4725593 4.27118644,20.1355932 L4.27118644,19.5254237 C4.27118644,19.1884576 3.99798305,18.9152542 3.66101695,18.9152542 Z" id="Path"/>
                    <path d="M6.10169492,18.9152542 L5.49152542,18.9152542 C5.15455932,18.9152542 4.88135593,19.1884576 4.88135593,19.5254237 L4.88135593,20.1355932 C4.88135593,20.4725593 5.15455932,20.7457627 5.49152542,20.7457627 L6.10169492,20.7457627 C6.43866102,20.7457627 6.71186441,20.4725593 6.71186441,20.1355932 L6.71186441,19.5254237 C6.71186441,19.1884576 6.43866102,18.9152542 6.10169492,18.9152542 Z" id="Path"/>
                    <path d="M3.66101695,21.3559322 L3.05084746,21.3559322 C2.71388136,21.3559322 2.44067797,21.6291356 2.44067797,21.9661017 L2.44067797,22.5762712 C2.44067797,22.9132373 2.71388136,23.1864407 3.05084746,23.1864407 L3.66101695,23.1864407 C3.99798305,23.1864407 4.27118644,22.9132373 4.27118644,22.5762712 L4.27118644,21.9661017 C4.27118644,21.6291356 3.99798305,21.3559322 3.66101695,21.3559322 Z" id="Path"/>
                    <path d="M6.10169492,21.3559322 L5.49152542,21.3559322 C5.15455932,21.3559322 4.88135593,21.6291356 4.88135593,21.9661017 L4.88135593,22.5762712 C4.88135593,22.9132373 5.15455932,23.1864407 5.49152542,23.1864407 L6.10169492,23.1864407 C6.43866102,23.1864407 6.71186441,22.9132373 6.71186441,22.5762712 L6.71186441,21.9661017 C6.71186441,21.6291356 6.43866102,21.3559322 6.10169492,21.3559322 Z" id="Path"/>
                    <path d="M3.66101695,23.7966102 L3.05084746,23.7966102 C2.71388136,23.7966102 2.44067797,24.0698136 2.44067797,24.4067797 L2.44067797,25.0169492 C2.44067797,25.3539153 2.71388136,25.6271186 3.05084746,25.6271186 L3.66101695,25.6271186 C3.99798305,25.6271186 4.27118644,25.3539153 4.27118644,25.0169492 L4.27118644,24.4067797 C4.27118644,24.0698136 3.99798305,23.7966102 3.66101695,23.7966102 Z" id="Path"/>
                    <path d="M6.10169492,23.7966102 L5.49152542,23.7966102 C5.15455932,23.7966102 4.88135593,24.0698136 4.88135593,24.4067797 L4.88135593,25.0169492 C4.88135593,25.3539153 5.15455932,25.6271186 5.49152542,25.6271186 L6.10169492,25.6271186 C6.43866102,25.6271186 6.71186441,25.3539153 6.71186441,25.0169492 L6.71186441,24.4067797 C6.71186441,24.0698136 6.43866102,23.7966102 6.10169492,23.7966102 Z" id="Path"/>
                    <path d="M3.66101695,26.2372881 L3.05084746,26.2372881 C2.71388136,26.2372881 2.44067797,26.5104915 2.44067797,26.8474576 L2.44067797,27.4576271 C2.44067797,27.7945932 2.71388136,28.0677966 3.05084746,28.0677966 L3.66101695,28.0677966 C3.99798305,28.0677966 4.27118644,27.7945932 4.27118644,27.4576271 L4.27118644,26.8474576 C4.27118644,26.5104915 3.99798305,26.2372881 3.66101695,26.2372881 Z" id="Path"/>
                    <path d="M6.10169492,26.2372881 L5.49152542,26.2372881 C5.15455932,26.2372881 4.88135593,26.5104915 4.88135593,26.8474576 L4.88135593,27.4576271 C4.88135593,27.7945932 5.15455932,28.0677966 5.49152542,28.0677966 L6.10169492,28.0677966 C6.43866102,28.0677966 6.71186441,27.7945932 6.71186441,27.4576271 L6.71186441,26.8474576 C6.71186441,26.5104915 6.43866102,26.2372881 6.10169492,26.2372881 Z" id="Path"/>
                    <path d="M3.66101695,28.6779661 L3.05084746,28.6779661 C2.71388136,28.6779661 2.44067797,28.9511695 2.44067797,29.2881356 L2.44067797,29.8983051 C2.44067797,30.2352712 2.71388136,30.5084746 3.05084746,30.5084746 L3.66101695,30.5084746 C3.99798305,30.5084746 4.27118644,30.2352712 4.27118644,29.8983051 L4.27118644,29.2881356 C4.27118644,28.9511695 3.99798305,28.6779661 3.66101695,28.6779661 Z" id="Path"/>
                    <path d="M6.10169492,28.6779661 L5.49152542,28.6779661 C5.15455932,28.6779661 4.88135593,28.9511695 4.88135593,29.2881356 L4.88135593,29.8983051 C4.88135593,30.2352712 5.15455932,30.5084746 5.49152542,30.5084746 L6.10169492,30.5084746 C6.43866102,30.5084746 6.71186441,30.2352712 6.71186441,29.8983051 L6.71186441,29.2881356 C6.71186441,28.9511695 6.43866102,28.6779661 6.10169492,28.6779661 Z" id="Path"/>
                    <path d="M3.66101695,31.1186441 L3.05084746,31.1186441 C2.71388136,31.1186441 2.44067797,31.3918475 2.44067797,31.7288136 L2.44067797,32.3389831 C2.44067797,32.6759492 2.71388136,32.9491525 3.05084746,32.9491525 L3.66101695,32.9491525 C3.99798305,32.9491525 4.27118644,32.6759492 4.27118644,32.3389831 L4.27118644,31.7288136 C4.27118644,31.3918475 3.99798305,31.1186441 3.66101695,31.1186441 Z" id="Path"/>
                    <path d="M6.10169492,31.1186441 L5.49152542,31.1186441 C5.15455932,31.1186441 4.88135593,31.3918475 4.88135593,31.7288136 L4.88135593,32.3389831 C4.88135593,32.6759492 5.15455932,32.9491525 5.49152542,32.9491525 L6.10169492,32.9491525 C6.43866102,32.9491525 6.71186441,32.6759492 6.71186441,32.3389831 L6.71186441,31.7288136 C6.71186441,31.3918475 6.43866102,31.1186441 6.10169492,31.1186441 Z" id="Path"/>
                    <path d="M33.559322,7.93220339 L31.1186441,7.93220339 C30.781678,7.93220339 30.5084746,8.20540678 30.5084746,8.54237288 L30.5084746,10.9830508 C30.5084746,11.3200169 30.781678,11.5932203 31.1186441,11.5932203 L33.559322,11.5932203 C33.8962881,11.5932203 34.1694915,11.3200169 34.1694915,10.9830508 L34.1694915,8.54237288 C34.1694915,8.20540678 33.8962881,7.93220339 33.559322,7.93220339 Z M32.9491525,10.3728814 L31.7288136,10.3728814 L31.7288136,9.15254237 L32.9491525,9.15254237 L32.9491525,10.3728814 Z" id="Shape"/>
                    <path d="M33.559322,12.8135593 L31.1186441,12.8135593 C30.781678,12.8135593 30.5084746,13.0867627 30.5084746,13.4237288 L30.5084746,15.8644068 C30.5084746,16.2013729 30.781678,16.4745763 31.1186441,16.4745763 L33.559322,16.4745763 C33.8962881,16.4745763 34.1694915,16.2013729 34.1694915,15.8644068 L34.1694915,13.4237288 C34.1694915,13.0867627 33.8962881,12.8135593 33.559322,12.8135593 Z M32.9491525,15.2542373 L31.7288136,15.2542373 L31.7288136,14.0338983 L32.9491525,14.0338983 L32.9491525,15.2542373 Z" id="Shape"/>
                    <path d="M33.559322,17.6949153 L31.1186441,17.6949153 C30.781678,17.6949153 30.5084746,17.9681186 30.5084746,18.3050847 L30.5084746,20.7457627 C30.5084746,21.0827288 30.781678,21.3559322 31.1186441,21.3559322 L33.559322,21.3559322 C33.8962881,21.3559322 34.1694915,21.0827288 34.1694915,20.7457627 L34.1694915,18.3050847 C34.1694915,17.9681186 33.8962881,17.6949153 33.559322,17.6949153 Z M32.9491525,20.1355932 L31.7288136,20.1355932 L31.7288136,18.9152542 L32.9491525,18.9152542 L32.9491525,20.1355932 Z" id="Shape"/>
                    <path d="M33.559322,22.5762712 L31.1186441,22.5762712 C30.781678,22.5762712 30.5084746,22.8494746 30.5084746,23.1864407 L30.5084746,25.6271186 C30.5084746,25.9640847 30.781678,26.2372881 31.1186441,26.2372881 L33.559322,26.2372881 C33.8962881,26.2372881 34.1694915,25.9640847 34.1694915,25.6271186 L34.1694915,23.1864407 C34.1694915,22.8494746 33.8962881,22.5762712 33.559322,22.5762712 Z M32.9491525,25.0169492 L31.7288136,25.0169492 L31.7288136,23.7966102 L32.9491525,23.7966102 L32.9491525,25.0169492 Z" id="Shape"/>
                    <path d="M33.559322,27.4576271 L31.1186441,27.4576271 C30.781678,27.4576271 30.5084746,27.7308305 30.5084746,28.0677966 L30.5084746,30.5084746 C30.5084746,30.8454407 30.781678,31.1186441 31.1186441,31.1186441 L33.559322,31.1186441 C33.8962881,31.1186441 34.1694915,30.8454407 34.1694915,30.5084746 L34.1694915,28.0677966 C34.1694915,27.7308305 33.8962881,27.4576271 33.559322,27.4576271 Z M32.9491525,29.8983051 L31.7288136,29.8983051 L31.7288136,28.6779661 L32.9491525,28.6779661 L32.9491525,29.8983051 Z" id="Shape"/>
                </g>
                <g id="002-airplane" transform="translate(0.000000, 7.000000)">
                    <path d="M4.76837165,16.8875157 C4.42402039,17.0453325 4.27209432,17.4426546 4.4255528,17.7822387 L5.9984476,21.0805675 C6.07572411,21.2447996 6.21670458,21.3726783 6.39008422,21.4357622 C6.46604722,21.4627066 6.54660746,21.4766064 6.62760555,21.4766064 C6.72896254,21.4774618 6.82900614,21.4562912 6.92116879,21.4154471 L18.805117,15.9932204 L17.7287184,26.9871506 C17.7079216,27.2035606 17.7932979,27.4163353 17.9590156,27.5608938 C18.4800302,27.9821663 19.1293282,28.2220993 19.8048958,28.2436975 C19.9911913,28.2436975 20.1763923,28.2206023 20.3569961,28.1756951 C21.3217487,27.9297746 22.0697768,27.0900095 22.5800645,25.6557583 L27.2567175,12.1284191 L36.5189555,7.90799538 C39.2453065,6.66534836 40.6502945,4.14562535 39.7067765,2.17890271 C39.1713137,1.15095499 38.145703,0.451685322 36.9734203,0.314611379 C35.6708839,0.122579505 34.3396698,0.322737421 33.1566602,0.888568479 L22.4679807,5.78452521 L10.975888,1.39366781 C9.52864968,0.861196457 8.38241763,0.874882468 7.57856659,1.44178273 C6.90409349,1.98238018 6.52033782,2.7949871 6.53675636,3.64715514 C6.5437616,3.86335136 6.65518865,4.06329545 6.83732483,4.18689721 L14.5757047,9.38330464 L10.144016,11.4319295 L2.71277214,9.58795327 C2.40826319,9.51481867 2.09127618,9.64889883 1.93694205,9.91577605 L0.0847133858,13.1728329 C-0.0113897352,13.3454049 -0.0264947653,13.5502674 0.0433387137,13.7346009 C0.112734337,13.9191482 0.260282132,14.0652036 0.448329,14.1357721 L5.94984879,16.3552582 L4.76837165,16.8875157 Z M7.9695464,3.30586023 C8.01070217,3.0171709 8.16022023,2.75435673 8.38920392,2.56831254 C8.78784578,2.28817697 9.5148581,2.329235 10.4863971,2.68421592 L20.7206117,6.58344612 L16.050745,8.71397312 L7.9695464,3.30586023 Z M1.678405,13.1662037 L2.89468942,11.0562057 L10.0459427,12.7904799 C10.2000579,12.8285442 10.3627108,12.8142166 10.5076317,12.7498496 L33.7510109,2.14490157 C34.6750455,1.69967848 35.7157612,1.53758481 36.7358989,1.68043256 C37.4513089,1.74479956 38.0885666,2.14810918 38.4416743,2.75927515 C39.028363,3.98866388 37.8751258,5.78452521 35.9246048,6.67219136 L27.8716461,10.3599299 L28.3611371,8.94599383 C28.4848233,8.58224527 28.282766,8.18920015 27.9103938,8.06859218 C27.5375838,7.9479842 27.1354394,8.14536216 27.0119721,8.50911067 L21.2587016,25.2321335 C20.9161016,26.1816005 20.4896578,26.7485007 20.0143962,26.8710334 C19.7199573,26.9264189 19.4152294,26.8699641 19.1615084,26.7142857 L20.5597101,12.373912 C20.5962687,11.9969051 20.3132134,11.6622394 19.9268307,11.6265275 C19.5408859,11.5903878 19.1982859,11.8673157 19.1615084,12.2443226 L18.9450028,14.4362228 L6.94897084,19.8990798 L5.96385926,17.850455 L7.93473917,16.9493166 C8.18846008,16.8400424 8.35198862,16.5949772 8.35198862,16.3244647 C8.35198862,16.0537383 8.18846008,15.8086731 7.93473917,15.6996127 L1.678405,13.1662037 Z" id="Shape"/>
                </g>
            </g>
        </g>
    </g>
</svg>