<?xml version="1.0" encoding="UTF-8"?>
<svg width="17px" height="17px" viewBox="0 0 17 17" version="1.1" xmlns="http://www.w3.org/2000/svg" xmlns:xlink="http://www.w3.org/1999/xlink">
    <!-- Generator: Sketch 45.1 (43504) - http://www.bohemiancoding.com/sketch -->
    <title>Shape</title>
    <desc>Created with Sketch.</desc>
    <defs>
        <path d="M15.3997714,16.1509481 L10.9096892,11.6608658 C10.8949076,11.6460843 10.8773105,11.6358779 10.8595374,11.6276073 C13.1985471,9.16471376 13.1621211,5.25938395 10.7463879,2.84400266 C9.55735018,1.654789 7.97642453,1 6.29501929,1 C4.61343809,1 3.03268841,1.65496497 1.84382669,2.84400266 C0.654613026,4.03286438 -1.77635684e-15,5.61343809 -1.77635684e-15,7.29501929 C-1.77635684e-15,8.9766005 0.654788997,10.5573502 1.84400266,11.7463879 C3.03286438,12.9354256 4.61361406,13.5903905 6.29519527,13.5903905 C7.92169747,13.5903905 9.45299923,12.9760749 10.6276073,11.8597134 C10.6362299,11.8776624 10.6460843,11.8949076 10.6608658,11.9096892 L15.1509481,16.3997714 C15.1852625,16.4340858 15.2303111,16.451331 15.2753598,16.451331 C15.3204084,16.451331 15.365457,16.4340858 15.3997714,16.3997714 C15.4685762,16.3311426 15.4685762,16.2197529 15.3997714,16.1509481 Z M6.29501929,13.238448 C4.70758271,13.238448 3.21517059,12.6200851 2.09265003,11.4975645 C0.969953494,10.375044 0.351766516,8.88263185 0.351766516,7.29501929 C0.351766516,5.70758271 0.969953494,4.21517059 2.09265003,3.09265003 C3.21517059,1.97012947 4.70740673,1.35176652 6.29501929,1.35176652 C7.88245588,1.35176652 9.374868,1.97012947 10.4975645,3.09265003 C12.8147539,5.40983936 12.8147539,9.18019923 10.4975645,11.4975645 C9.374868,12.6200851 7.88245588,13.238448 6.29501929,13.238448 Z" id="path-1"/>
    </defs>
    <g id="Welcome" stroke="none" stroke-width="1" fill="none" fill-rule="evenodd">
        <g id="Loading" transform="translate(-1128.000000, -715.000000)">
            <g id="Group-2" transform="translate(1129.000000, 715.000000)">
                <g id="Shape">
                    <use fill="#FFFFFF" fill-rule="evenodd" xlink:href="#path-1"/>
                    <path stroke="#FFFFFF" stroke-width="0.5" d="M10.6111447,12.2135214 C9.41530881,13.2660289 7.89789735,13.8403905 6.29519527,13.8403905 C4.54739482,13.8403905 2.90302432,13.1591458 1.66723905,11.9231776 C0.431161012,10.6872825 -0.25,9.04295024 -0.25,7.29501929 C-0.25,5.54700469 0.431044728,3.90286544 1.66703691,2.66723905 C2.90284835,1.43124469 4.54721885,0.75 6.29501929,0.75 C8.04283827,0.75 9.68732776,1.43120627 10.9231517,2.66721309 C13.369334,5.11303905 13.4740838,9.03813504 11.2133234,11.6109467 L15.5765481,15.9741714 C15.7430217,16.140645 15.7430217,16.4105006 15.5765481,16.5765481 C15.4957765,16.6573198 15.3873805,16.701331 15.2753598,16.701331 C15.163339,16.701331 15.054943,16.6573198 14.9741714,16.5765481 L10.6111447,12.2135214 Z M10.8499625,11.7452324 L10.8376425,11.7329125 C10.8478446,11.7431146 10.8522292,11.7499509 10.8529536,11.7514588 L10.8499625,11.7452324 Z M10.7455998,11.8503298 L10.7540618,11.8542676 C10.7505815,11.8526481 10.7431507,11.8478808 10.7329125,11.8376425 L10.7455998,11.8503298 Z M6.29501929,12.988448 C7.81602726,12.988448 9.24489525,12.3965118 10.3207811,11.3207945 C12.5403472,9.1010599 12.5403472,5.4889861 10.3208017,3.26944058 C9.24489525,2.19370277 7.81602726,1.60176652 6.29501929,1.60176652 C4.77388245,1.60176652 3.34518456,2.19366888 2.26941287,3.26944058 C1.19364917,4.34503566 0.601766516,5.77383668 0.601766516,7.29501929 C0.601766516,8.81635581 1.19363356,10.2451633 2.26942672,11.3207878 C3.34513794,12.3964991 4.77399251,12.988448 6.29501929,12.988448 Z"/>
                </g>
            </g>
        </g>
    </g>
</svg>