<?xml version="1.0" encoding="UTF-8"?>
<svg width="26px" height="29px" viewBox="0 0 26 29" version="1.1" xmlns="http://www.w3.org/2000/svg" xmlns:xlink="http://www.w3.org/1999/xlink">
    <!-- Generator: Sketch 45.1 (43504) - http://www.bohemiancoding.com/sketch -->
    <title>Group 10</title>
    <desc>Created with Sketch.</desc>
    <defs>
        <filter x="-1.0%" y="-3.5%" width="101.9%" height="108.5%" filterUnits="objectBoundingBox" id="filter-1">
            <feOffset dx="0" dy="2" in="SourceAlpha" result="shadowOffsetOuter1"/>
            <feGaussianBlur stdDeviation="2" in="shadowOffsetOuter1" result="shadowBlurOuter1"/>
            <feColorMatrix values="0 0 0 0 0   0 0 0 0 0   0 0 0 0 0  0 0 0 0.136180933 0" type="matrix" in="shadowBlurOuter1" result="shadowMatrixOuter1"/>
            <feMerge>
                <feMergeNode in="shadowMatrixOuter1"/>
                <feMergeNode in="SourceGraphic"/>
            </feMerge>
        </filter>
    </defs>
    <g id="Welcome" stroke="none" stroke-width="1" fill="none" fill-rule="evenodd">
        <g id="Hello" transform="translate(-1045.000000, -629.000000)" fill="#15B3CC">
            <g id="Custom-Find" filter="url(#filter-1)" transform="translate(150.000000, 454.000000)">
                <g id="Group-10" transform="translate(899.000000, 177.000000)">
                    <path d="M5.79687599,3.9625009 C5.79687599,4.16570607 5.80397494,4.39068323 5.83946967,4.62291771 C5.86786546,4.78983625 5.83237072,4.96401211 5.72588653,5.10190134 C4.88111187,6.19050048 6.09503175,7.58390739 6.28670331,7.79436989 C6.37189067,7.86694317 6.42868224,7.9540311 6.45707803,8.06289102 L6.45707803,8.06289102 C6.73393695,9.04263025 7.22376427,9.72481905 7.79168,10.1312294 C8.18922101,10.3997505 8.62935571,10.5376397 9.0694904,10.5376397 C9.50962509,10.5376397 9.94975979,10.3997505 10.3473008,10.1312294 C10.9081176,9.73207638 11.390846,9.06440223 11.6748038,8.11369231 C11.6961007,8.0048324 11.7386943,7.90322981 11.8238817,7.81614188 L11.8238817,7.82339921 C11.8380796,7.80888455 13.3146605,6.29210307 12.4343911,5.12367332 C12.3279069,5.00029875 12.2711153,4.83338021 12.2995111,4.65920435 C12.3279069,4.41245521 12.3492038,4.18022073 12.3421048,3.9625009 C12.3350059,3.17145218 12.1007406,2.53280735 11.6819028,2.07559571 C11.255966,1.61112674 10.6312587,1.3135763 9.85747348,1.20471639 C9.62320824,1.16842975 9.37474511,1.1539151 9.12628197,1.1539151 C9.10498513,1.1539151 9.08368829,1.16117242 9.06239145,1.16117242 L9.06239145,1.1539151 C8.79263148,1.1539151 8.52997045,1.16842975 8.28150732,1.20471639 C7.51482108,1.3135763 6.89011378,1.61112674 6.46417698,2.07559571 C6.04533912,2.53280735 5.80397494,3.17145218 5.79687599,3.9625009 M4.68944031,4.58663107 C4.66814347,4.36891124 4.66104453,4.15844874 4.66104453,3.95524357 C4.67524242,2.85212977 5.02309081,1.95222114 5.64069917,1.28454699 C6.24410963,0.624130178 7.09598323,0.203205174 8.13242944,0.0580586212 C8.42348625,0.0145146553 8.74293885,0 9.0694904,0 L9.07658935,0 L9.11208408,0 C9.43153668,0 9.72969244,0.0217719829 10.0136503,0.0580586212 C11.0429976,0.203205174 11.8948712,0.624130178 12.5053806,1.28454699 C13.11589,1.95222114 13.4637384,2.85212977 13.4779363,3.95524357 C13.4779363,4.15844874 13.4708373,4.36891124 13.4495405,4.58663107 C14.5285804,6.26307376 13.1300879,8.06289102 12.7325469,8.52010266 C12.3705006,9.71030439 11.7315954,10.5594117 10.9791071,11.0819393 C10.3898945,11.495607 9.72969244,11.6988122 9.0694904,11.6988122 C8.40928836,11.6988122 7.74908632,11.495607 7.15987375,11.0819393 C6.4073854,10.5594117 5.77557915,9.71030439 5.40643393,8.52010266 C5.00889291,8.06289102 3.60330147,6.26307376 4.68944031,4.58663107" id="Fill-1"/>
                    <path d="M1.14503187,18.6856369 C4.32535997,19.796008 8.35756167,19.8105227 8.84738899,19.8105227 C8.86868583,19.8032653 8.88998267,19.8032653 8.90418056,19.8032653 L8.90418056,19.8105227 C8.96097214,19.8105227 13.2842307,19.8540666 16.6562303,18.6856369 C16.6065377,17.8873308 16.3793714,16.1165429 15.236441,15.4924127 C15.2222431,15.4851554 15.2080452,15.4778981 15.1938473,15.4706407 L11.8431445,13.5764782 C11.8005508,13.6127649 11.7650561,13.6417942 11.7224624,13.6780808 C10.9628751,14.3167256 9.93352783,14.6287907 8.91837846,14.6215334 C7.91742698,14.6215334 6.90937655,14.3094683 6.16398715,13.6925955 C6.14269031,13.6780808 6.12849242,13.6635662 6.11429453,13.6563088 L6.36275766,13.3515011 L6.11429453,13.6490515 C6.07879979,13.6200222 6.04330506,13.5909929 6.00071138,13.5547062 L2.63581067,15.4488688 C2.62161277,15.4633834 2.60741488,15.4706407 2.59321699,15.4778981 L2.33765491,14.9626278 L2.59321699,15.4778981 C1.42898974,16.0947709 1.1947245,17.8873308 1.14503187,18.6856369 L1.14503187,18.6856369 Z M8.89708162,20.9644378 L8.88998267,20.9644378 L8.88998267,20.9644378 L8.85448794,20.9644378 C8.33626483,20.9644378 3.79293897,20.9499231 0.371246683,19.6363468 L0.57001719,19.0920472 L0.364147737,19.6363468 C0.12278355,19.5420015 -0.0191953827,19.2952524 0.00210145722,19.0412459 C0.00210145722,18.5912916 0.0872888171,15.5141847 2.06079599,14.4546149 L2.07499388,14.4473575 C2.08209283,14.4401002 2.08209283,14.4401002 2.08919177,14.4401002 L5.83743561,12.3209605 C6.09299769,12.175814 6.41245029,12.2629019 6.57572606,12.4951364 C6.65381447,12.5894817 6.74610078,12.6838269 6.83838709,12.7636575 C6.85258498,12.7709149 6.86678287,12.7854295 6.87388182,12.7926868 C7.41340177,13.2353838 8.16589011,13.4676183 8.91837846,13.4676183 C9.69216364,13.4748756 10.4588499,13.2426411 11.0054688,12.7854295 C11.111953,12.6910842 11.2113382,12.5894817 11.2965256,12.4878791 L11.7366603,12.8580028 L11.2965256,12.4806217 C11.4810982,12.2629019 11.8005508,12.2121006 12.034816,12.3645045 L15.7404662,14.4546149 L15.7404662,14.4546149 L15.7759609,14.4763868 C17.8701502,15.6303019 17.7991607,19.0847899 17.7991607,19.0993046 L17.2383439,19.0920472 L17.8062597,19.0993046 C17.7991607,19.3678257 17.6216871,19.5855455 17.3803229,19.6581188 C13.8095527,21.0079817 9.06745634,20.9644378 8.89708162,20.9644378 L8.89708162,20.9644378 Z" id="Fill-3"/>
                </g>
            </g>
        </g>
    </g>
</svg>