<?xml version="1.0" encoding="UTF-8"?>
<svg width="26px" height="25px" viewBox="0 0 26 25" version="1.1" xmlns="http://www.w3.org/2000/svg" xmlns:xlink="http://www.w3.org/1999/xlink">
    <!-- Generator: Sketch 45.1 (43504) - http://www.bohemiancoding.com/sketch -->
    <title>Fill 1</title>
    <desc>Created with Sketch.</desc>
    <defs>
        <filter x="-1.0%" y="-3.5%" width="101.9%" height="108.5%" filterUnits="objectBoundingBox" id="filter-1">
            <feOffset dx="0" dy="2" in="SourceAlpha" result="shadowOffsetOuter1"/>
            <feGaussianBlur stdDeviation="2" in="shadowOffsetOuter1" result="shadowBlurOuter1"/>
            <feColorMatrix values="0 0 0 0 0   0 0 0 0 0   0 0 0 0 0  0 0 0 0.136180933 0" type="matrix" in="shadowBlurOuter1" result="shadowMatrixOuter1"/>
            <feMerge>
                <feMergeNode in="shadowMatrixOuter1"/>
                <feMergeNode in="SourceGraphic"/>
            </feMerge>
        </filter>
    </defs>
    <g id="Welcome" stroke="none" stroke-width="1" fill="none" fill-rule="evenodd">
        <g id="Hello" transform="translate(-704.000000, -629.000000)" fill="#16B7D1">
            <g id="Custom-Find" filter="url(#filter-1)" transform="translate(150.000000, 454.000000)">
                <g id="Textbox" transform="translate(450.000000, 157.000000)">
                    <path d="M124.803987,25.8903654 L109.196013,25.8903654 L109.196013,23.3787375 C109.196013,22.8106312 109.674419,22.3322259 110.242525,22.3322259 L112.156146,22.3322259 L112.156146,22.8704319 C112.156146,23.1993355 112.425548,23.4684385 112.754153,23.4684385 C113.083056,23.4684385 113.352159,23.1993355 113.352159,22.8704319 L113.352159,22.3322259 L116.401993,22.3322259 L116.401993,22.8704319 C116.401993,23.1993355 116.671096,23.4684385 117,23.4684385 C117.328904,23.4684385 117.598007,23.1993355 117.598007,22.8704319 L117.598007,22.3322259 L120.64814,22.3322259 L120.64814,22.8704319 C120.64814,23.1993355 120.916944,23.4684385 121.246146,23.4684385 C121.574751,23.4684385 121.844153,23.1993355 121.844153,22.8704319 L121.844153,22.3322259 L123.757475,22.3322259 C124.325581,22.3322259 124.803987,22.8106312 124.803987,23.3787375 L124.803987,25.8903654 Z M124.803987,34.5016611 C124.803987,35.0697674 124.325581,35.5481728 123.757475,35.5481728 L110.242525,35.5481728 C109.674419,35.5481728 109.196013,35.0697674 109.196013,34.5016611 L109.196013,27.0863787 L124.803987,27.0863787 L124.803987,34.5016611 Z M123.757475,21.1362126 L121.844153,21.1362126 L121.844153,20.5980066 C121.844153,20.269103 121.574751,20 121.246146,20 C120.916944,20 120.64814,20.269103 120.64814,20.5980066 L120.64814,21.1362126 L117.598007,21.1362126 L117.598007,20.5980066 C117.598007,20.269103 117.328904,20 117,20 C116.671096,20 116.401993,20.269103 116.401993,20.5980066 L116.401993,21.1362126 L113.352159,21.1362126 L113.352159,20.5980066 C113.352159,20.269103 113.083056,20 112.754153,20 C112.425548,20 112.156146,20.269103 112.156146,20.5980066 L112.156146,21.1362126 L110.242525,21.1362126 C109.016611,21.1362126 108,22.1528239 108,23.3787375 L108,34.5016611 C108,35.7275748 109.016611,36.744186 110.242525,36.744186 L123.757475,36.744186 C124.983688,36.744186 126,35.7275748 126,34.5016611 L126,23.3787375 C126,22.1528239 124.983688,21.1362126 123.757475,21.1362126 L123.757475,21.1362126 Z" id="Fill-1"/>
                </g>
            </g>
        </g>
    </g>
</svg>